<svg width="84" height="128" viewBox="0 0 111 168" fill="none" xmlns="http://www.w3.org/2000/svg">
<path d="M30.8869 43.6518C30.1757 42.5449 28.7018 42.2241 27.5948 42.9353C23.1706 45.7778 19.5212 49.6742 16.9743 54.2749C14.4273 58.8757 13.0624 64.0368 13.0021 69.2951C12.9417 74.5534 14.1878 79.7445 16.6285 84.4025C19.0692 89.0604 22.6281 93.0396 26.986 95.9829C28.0763 96.7193 29.5572 96.4324 30.2936 95.342C31.0301 94.2517 30.7431 92.7708 29.6528 92.0344C25.9486 89.5326 22.9235 86.1503 20.8489 82.191C18.7743 78.2318 17.7152 73.8194 17.7665 69.3498C17.8178 64.8802 18.9779 60.4933 21.1428 56.5826C23.3078 52.672 26.4097 49.36 30.1703 46.9439C31.2773 46.2327 31.5981 44.7588 30.8869 43.6518Z" fill="white"/>
<path d="M58.6425 43.6518C59.3537 42.5449 60.8276 42.2241 61.9346 42.9353C66.3588 45.7778 70.0082 49.6742 72.5551 54.2749C75.1021 58.8757 76.467 64.0368 76.5273 69.2951C76.5877 74.5534 75.3416 79.7445 72.9009 84.4025C70.4602 89.0604 66.9013 93.0396 62.5434 95.9829C61.4531 96.7193 59.9722 96.4324 59.2358 95.342C58.4993 94.2517 58.7863 92.7708 59.8766 92.0344C63.5808 89.5326 66.6059 86.1503 68.6805 82.191C70.7551 78.2318 71.8142 73.8194 71.7629 69.3498C71.7116 64.8802 70.5515 60.4933 68.3866 56.5826C66.2216 52.672 63.1197 49.36 59.3591 46.9439C58.2521 46.2327 57.9313 44.7588 58.6425 43.6518Z" fill="white"/>
<path d="M54.8643 53.4968C53.7485 52.7996 52.2787 53.1389 51.5815 54.2547C50.8842 55.3705 51.2235 56.8403 52.3394 57.5375C54.4444 58.8529 56.1707 60.6938 57.3481 62.879C58.5256 65.0642 59.1138 67.5183 59.0547 69.9999C58.9956 72.4814 58.2913 74.9048 57.0112 77.0314C55.731 79.1581 53.9191 80.9148 51.7538 82.1285C50.6061 82.7718 50.1972 84.2238 50.8406 85.3715C51.4839 86.5192 52.9359 86.9281 54.0836 86.2848C56.9706 84.6665 59.3865 82.3243 61.0934 79.4887C62.8002 76.6532 63.7393 73.422 63.818 70.1133C63.8968 66.8046 63.1126 63.5324 61.5426 60.6188C59.9727 57.7052 57.671 55.2507 54.8643 53.4968Z" fill="white"/>
<path d="M37.9479 54.2547C37.2507 53.1389 35.7809 52.7996 34.6651 53.4968C31.8584 55.2507 29.5567 57.7052 27.9868 60.6188C26.4168 63.5324 25.6326 66.8046 25.7113 70.1133C25.7901 73.422 26.7292 76.6532 28.436 79.4887C30.1429 82.3243 32.5588 84.6665 35.4458 86.2848C36.5935 86.9281 38.0455 86.5192 38.6888 85.3715C39.3322 84.2238 38.9233 82.7718 37.7755 82.1285C35.6103 80.9148 33.7984 79.1581 32.5182 77.0314C31.2381 74.9048 30.5338 72.4814 30.4747 69.9999C30.4156 67.5183 31.0038 65.0642 32.1813 62.879C33.3587 60.6938 35.085 58.8529 37.19 57.5375C38.3058 56.8403 38.6452 55.3705 37.9479 54.2547Z" fill="white"/>
<path d="M44.7647 77.6008C49.1505 77.6008 52.7059 74.0454 52.7059 69.6596C52.7059 65.2738 49.1505 61.7185 44.7647 61.7185C40.3789 61.7185 36.8235 65.2738 36.8235 69.6596C36.8235 74.0454 40.3789 77.6008 44.7647 77.6008Z" fill="white"/>
<path fill-rule="evenodd" clip-rule="evenodd" d="M109.056 0.0319945C109.748 -0.145071 110.397 0.438664 110.294 1.14506L107.882 17.6847C107.766 18.4749 106.817 18.8179 106.223 18.2839L100.608 13.2333L77.2771 39.1738C79.7431 41.8815 81.8847 44.9057 83.6363 48.1923C89.1783 58.5908 90.3624 70.765 86.9283 82.0367C83.4941 93.3083 75.723 102.754 65.3244 108.296C59.3476 111.481 52.7842 113.227 46.1427 113.484V137.231H70.1427C71.3261 137.231 72.2855 138.19 72.2855 139.374C72.2855 140.557 71.3261 141.517 70.1427 141.517H46.1427V165.517C46.1427 166.7 45.1833 167.659 43.9999 167.659C42.8164 167.659 41.857 166.7 41.857 165.517V141.517H17.8571C16.6736 141.517 15.7142 140.557 15.7142 139.374C15.7142 138.19 16.6736 137.231 17.8571 137.231H41.857V113.442C38.3649 113.24 34.8814 112.624 31.4801 111.588C20.2085 108.154 10.7627 100.383 5.22076 89.9841C-0.321181 79.5855 -1.50533 67.4114 1.92882 56.1397C5.36296 44.8681 13.1341 35.4223 23.5326 29.8804C33.9312 24.3385 46.1054 23.1543 57.377 26.5885C63.6922 28.5125 69.4343 31.798 74.2377 36.1443L97.4215 10.3674L92.4433 5.89008C91.8496 5.35608 92.0904 4.37587 92.864 4.17781L109.056 0.0319945ZM55.9198 31.3714C45.9166 28.3237 35.1126 29.3746 25.8843 34.2929C16.656 39.2111 9.75942 47.5938 6.71175 57.597C3.66409 67.6001 4.71497 78.4042 9.63322 87.6325C14.5515 96.8607 22.9342 103.757 32.9373 106.805C42.9404 109.853 53.7445 108.802 62.9728 103.884C72.2011 98.9653 79.0976 90.5825 82.1453 80.5794C85.193 70.5763 84.1421 59.7722 79.2239 50.5439C74.3056 41.3156 65.9229 34.4191 55.9198 31.3714Z" fill="white"/>
</svg>
